<svg xmlns="http://www.w3.org/2000/svg" viewBox="0 0 40 40">
  <circle cx="20" cy="20" r="20" fill="#48a848"/>
  <path d="M20 32 Q18 24 14 16 Q11 10 13 8 Q16 6 17 12 Q18 18 20 26" fill="white"/>
  <path d="M20 32 Q20 24 20 16 Q20 9 20 7 Q20 5 20 7 Q20 14 20 26" fill="white"/>
  <path d="M20 32 Q22 24 26 16 Q29 10 27 8 Q24 6 23 12 Q22 18 20 26" fill="white"/>
  <path d="M12 15 Q16 11 20 13 Q24 11 28 15" stroke="white" stroke-width="1.5" fill="none"/>
  <ellipse cx="13" cy="8" rx="3" ry="2" fill="white" transform="rotate(-30,13,8)"/>
  <ellipse cx="20" cy="7" rx="3" ry="2" fill="white"/>
  <ellipse cx="27" cy="8" rx="3" ry="2" fill="white" transform="rotate(30,27,8)"/>
</svg>
